HIERARCHY
ROOT Hips
{
	OFFSET 0.00 0.00 0.00
	CHANNELS 6 Xposition Yposition Zposition Yrotation Xrotation Zrotation
	JOINT LHipJoint
	{
		OFFSET	0.0000	0.0000	0.0000
		CHANNELS 3 Yrotation Xrotation Zrotation
		JOINT LeftUpLeg
		{
			OFFSET	1.0138	-0.0809	-0.0827
			CHANNELS 3 Yrotation Xrotation Zrotation
			JOINT LeftLeg
			{
				OFFSET	0.4110	-3.9095	0.3245
				CHANNELS 3 Yrotation Xrotation Zrotation
				JOINT LeftFoot
				{
					OFFSET	0.3810	-4.0555	-0.1470
					CHANNELS 3 Yrotation Xrotation Zrotation
					JOINT LeftToeBase
					{
						OFFSET	0.1396	-0.4462	1.3079
						CHANNELS 3 Yrotation Xrotation Zrotation
						End Site
						{
							OFFSET 0.0161 -0.0248 0.1809
						}
					}
				}
			}
		}
	}
	JOINT LowerBack
	{
		OFFSET	0.0000	0.7977	-0.3873
		CHANNELS 3 Yrotation Xrotation Zrotation
		JOINT Spine
		{
			OFFSET	0.0000	1.4131	0.1715
			CHANNELS 3 Yrotation Xrotation Zrotation
			JOINT Spine1
			{
				OFFSET	0.0000	1.4392	-0.1032
				CHANNELS 3 Yrotation Xrotation Zrotation
				JOINT LeftShoulder
				{
					OFFSET	0.2274	1.0382	0.4032
					CHANNELS 3 Yrotation Xrotation Zrotation
					JOINT LeftArm
					{
						OFFSET	1.4730	-0.2267	-0.0231
						CHANNELS 3 Yrotation Xrotation Zrotation
						JOINT LeftForeArm
						{
							OFFSET	1.6131	-1.8059	0.0081
							CHANNELS 3 Yrotation Xrotation Zrotation
							JOINT LeftHand
							{
								OFFSET	1.2197	-1.2423	1.6317
								CHANNELS 3 Yrotation Xrotation Zrotation
								JOINT LThumb
								{
									OFFSET	0.0109	-0.0753	0.4387
									CHANNELS 3 Yrotation Xrotation Zrotation
									End Site
									{
										OFFSET -0.2090 -0.0868 0.2097
									}
								}
								JOINT LeftFingerBase
								{
									OFFSET	0.1071	-0.1567	0.2607
									CHANNELS 3 Yrotation Xrotation Zrotation
									JOINT LeftHandFinger1
									{
										OFFSET	0.1706	-0.2492	0.6830
										CHANNELS 3 Yrotation Xrotation Zrotation
										End Site
										{
											OFFSET 0.0335 -0.1507 0.2071
										}
									}
								}
							}
						}
					}
				}
				JOINT Neck
				{
					OFFSET	0.0000	1.7498	0.2381
					CHANNELS 3 Yrotation Xrotation Zrotation
					JOINT Neck1
					{
						OFFSET	0.0000	0.5043	0.1959
						CHANNELS 3 Yrotation Xrotation Zrotation
						JOINT Head
						{
							OFFSET	0.0000	0.5044	0.1959
							CHANNELS 3 Yrotation Xrotation Zrotation
							End Site
							{
								OFFSET 0.0000 1.4798 -0.0693
							}
						}
					}
				}
				JOINT RightShoulder
				{
					OFFSET	-0.2274	1.0382	0.4032
					CHANNELS 3 Yrotation Xrotation Zrotation
					JOINT RightArm
					{
						OFFSET	-1.4730	-0.2267	-0.0231
						CHANNELS 3 Yrotation Xrotation Zrotation
						JOINT RightForeArm
						{
							OFFSET	-1.6131	-1.8059	0.0081
							CHANNELS 3 Yrotation Xrotation Zrotation
							JOINT RightHand
							{
								OFFSET	-1.2197	-1.2423	1.6317
								CHANNELS 3 Yrotation Xrotation Zrotation
								JOINT RThumb
								{
									OFFSET	-0.0109	-0.0753	0.4387
									CHANNELS 3 Yrotation Xrotation Zrotation
									End Site
									{
										OFFSET 0.2090 -0.0868 0.2097
									}
								}
								JOINT RightFingerBase
								{
									OFFSET	-0.1071	-0.1567	0.2607
									CHANNELS 3 Yrotation Xrotation Zrotation
									JOINT RightHandFinger1
									{
										OFFSET	-0.1706	-0.2492	0.6830
										CHANNELS 3 Yrotation Xrotation Zrotation
										End Site
										{
											OFFSET -0.0335 -0.1507 0.2071
										}
									}
								}
							}
						}
					}
				}
			}
		}
	}
	JOINT RHipJoint
	{
		OFFSET	0.0000	0.0000	0.0000
		CHANNELS 3 Yrotation Xrotation Zrotation
		JOINT RightUpLeg
		{
			OFFSET	-1.0138	-0.0809	-0.0827
			CHANNELS 3 Yrotation Xrotation Zrotation
			JOINT RightLeg
			{
				OFFSET	-0.4110	-3.9095	0.3245
				CHANNELS 3 Yrotation Xrotation Zrotation
				JOINT RightFoot
				{
					OFFSET	-0.3810	-4.0555	-0.1470
					CHANNELS 3 Yrotation Xrotation Zrotation
					JOINT RightToeBase
					{
						OFFSET	-0.1396	-0.4462	1.3079
						CHANNELS 3 Yrotation Xrotation Zrotation
						End Site
						{
							OFFSET -0.0161 -0.0248 0.1809
						}
					}
				}
			}
		}
	}
}
MOTION
Frames: 14
Frame Time: 0.0333333
0.9387 8.5255 0.7721 -6.0625 -9.1127 1.4216 0.0000 -0.0000 0.0000 7.6948 0.7916 -9.7369 5.4200 22.0314 2.9485 -2.0283 -15.5415 7.8602 0.0000 1.1493 0.0000 0.0000 -0.0000 0.0000 -1.3363 6.7978 -0.3843 -2.7603 13.6108 -0.1907 0.5723 0.7377 -4.4453 -23.1407 3.2156 -25.8257 -54.3925 -41.4407 20.5177 8.8906 -13.2571 -3.7503 34.8536 -10.1880 14.6318 9.4167 14.1178 1.0313 -76.0607 19.3266 -64.6120 0.6741 1.4474 -0.0165 0.6754 1.4469 -0.0490 5.8564 10.3157 0.0302 12.6726 -0.2081 9.8815 11.6639 8.7395 22.7393 68.0636 -45.2675 -30.0771 -10.6977 1.3487 -4.2006 -31.6958 -9.4728 -15.4275 -10.8450 10.6298 -2.6138 80.0061 16.5079 67.2779 0.0000 -0.0000 0.0000 -9.8576 -14.2925 0.5437 -1.6117 51.0593 0.0796 -0.2200 0.2246 3.6508 0.0000 -12.2116 0.0000 
0.9443 8.5526 0.7563 -5.4246 -8.5599 0.8472 0.0000 -0.0000 0.0000 7.6126 2.9127 -9.5405 4.7193 20.3610 3.2810 -2.1294 -16.5275 7.6285 0.0000 1.0809 0.0000 0.0000 -0.0000 0.0000 -1.4849 6.7285 -0.1485 -2.9740 13.4763 0.1877 0.4934 0.7281 -4.2823 -23.5287 3.8145 -26.6116 -55.2287 -41.7384 21.0822 8.3620 -12.6294 -2.7098 34.9793 -10.3523 14.4599 9.4167 14.1178 1.0313 -76.0607 19.3266 -64.6120 0.6171 1.4015 0.0716 0.6205 1.4013 0.0399 5.2494 9.3519 0.3613 12.5169 -0.1924 9.8406 11.0306 9.7186 22.9235 68.9592 -45.4463 -30.7232 -10.3956 1.0223 -3.3418 -31.4711 -10.5086 -14.7062 -10.8450 10.6298 -2.6137 80.0061 16.5079 67.2779 0.0000 -0.0000 0.0000 -9.5852 -15.5491 2.4799 -3.2635 42.4418 -1.3438 -0.2371 -0.2817 5.0288 -0.7977 -20.2329 5.6425 
0.9361 8.5662 0.7524 -4.7766 -7.9632 0.6916 0.0000 -0.0000 0.0000 7.6659 5.2218 -9.3536 3.7357 18.5356 3.1094 -2.2522 -17.4996 7.5279 0.0000 1.0414 -0.0000 0.0000 -0.0000 0.0000 -1.6099 6.6680 -0.1568 -3.1923 13.3473 -0.0611 0.3790 0.7160 -4.0431 -23.7402 4.6179 -26.8983 -56.3942 -42.1386 21.8741 7.8383 -12.1576 -1.4250 35.0881 -10.4934 14.3112 9.4167 14.1178 1.0313 -76.0607 19.3266 -64.6120 0.5807 1.3055 0.2121 0.5882 1.3056 0.1810 4.9133 8.4491 0.7924 12.5748 -0.2101 10.0065 10.4783 10.5310 23.3523 69.5612 -45.5618 -31.1586 -9.5547 0.7405 -2.4755 -31.2741 -11.5252 -13.9895 -10.8450 10.6298 -2.6137 80.0061 16.5079 67.2779 0.0000 -0.0000 0.0000 -9.0877 -16.7863 4.1099 -2.3662 33.0281 -1.4123 -0.2201 0.6639 5.5889 0.0000 -8.4318 -0.0000 
0.9185 8.5590 0.7670 -4.0319 -7.4500 0.7571 0.0000 -0.0000 0.0000 7.7888 7.5949 -9.1200 2.6374 17.0608 2.7652 -2.4430 -18.7653 7.4624 0.0000 0.9921 0.0000 0.0000 -0.0000 0.0000 -1.7386 6.6326 -0.2262 -3.4669 13.2575 -0.6133 0.3088 0.7062 -3.8359 -23.9493 5.4528 -26.7468 -57.4444 -42.4848 22.5926 7.5986 -12.3074 -0.3047 35.1183 -10.3618 14.4920 9.4167 14.1178 1.0313 -76.0607 19.3266 -64.6120 0.5621 1.1793 0.3394 0.5743 1.1795 0.3091 4.7820 7.9065 1.0974 12.6108 -0.2292 10.2098 10.2592 11.0903 23.9082 69.9947 -45.6428 -31.4726 -8.4791 0.7955 -1.9793 -31.0170 -13.0896 -12.8670 -10.8450 10.6297 -2.6138 80.0061 16.5079 67.2779 0.0000 -0.0000 0.0000 -8.6147 -18.2770 5.6794 -0.9962 23.5938 -2.1512 -0.1545 2.4881 6.7577 0.0000 -8.5772 0.0000 
0.8977 8.5327 0.7919 -3.1642 -7.0443 1.1356 0.0000 -0.0000 0.0000 7.7922 10.1266 -9.1107 1.5076 15.6640 2.4761 -2.6538 -20.1191 7.3610 0.0000 0.9072 -0.0000 0.0000 -0.0000 0.0000 -1.8864 6.6000 -0.4011 -3.8156 13.1681 -1.3340 0.2629 0.7014 -3.7352 -24.0435 6.1523 -26.3540 -58.1640 -42.7142 23.0876 7.7835 -12.9021 0.1242 35.2006 -10.0140 14.9673 9.4167 14.1178 1.0313 -76.0608 19.3266 -64.6120 0.5560 1.0595 0.4208 0.5722 1.0598 0.3912 4.6968 7.7320 1.2591 12.5006 -0.2250 10.2685 10.5099 11.3783 24.5599 70.3149 -45.7013 -31.7048 -7.6120 1.3026 -2.0281 -31.0037 -13.1484 -12.8113 -10.8450 10.6298 -2.6138 80.0061 16.5079 67.2779 0.0000 -0.0000 0.0000 -8.3612 -19.8772 6.9580 -0.0507 15.3673 -3.8140 -0.0765 3.9237 7.7742 0.0000 -8.5861 -0.0000 
0.8750 8.4909 0.7906 -2.2219 -6.6462 1.9472 0.0000 -0.0000 0.0000 7.6894 12.4303 -9.4690 0.2803 14.4125 2.1961 -2.8117 -21.3058 7.2613 0.0000 0.7251 -0.0000 0.0000 -0.0000 0.0000 -2.0307 6.4374 -0.7971 -4.1478 12.8214 -2.2290 0.1950 0.6983 -3.7092 -23.9042 6.6082 -25.8704 -58.2636 -42.7455 23.1563 8.0425 -13.5166 -0.2497 35.3236 -9.5207 15.6366 9.4167 14.1178 1.0313 -76.0607 19.3266 -64.6120 0.5500 1.0370 0.4852 0.5683 1.0374 0.4558 4.6042 7.9674 1.3003 12.4058 -0.2127 10.2028 11.0562 11.6300 25.3688 70.6094 -45.7543 -31.9186 -7.2573 2.0655 -2.9932 -31.2279 -11.5739 -13.8568 -10.8450 10.6298 -2.6138 80.0061 16.5079 67.2779 0.0000 -0.0000 0.0000 -8.3458 -21.4410 6.8633 2.0120 10.5233 -4.4469 -0.1488 0.5502 9.0255 0.0000 -7.3753 -0.0000 
0.8509 8.4423 0.7406 -1.5672 -6.1357 2.8318 0.0000 -0.0000 0.0000 7.6916 14.0569 -9.8520 -0.7918 13.6151 1.8914 -2.9113 -22.3872 7.1786 0.0000 0.5783 -0.0000 0.0000 -0.0000 0.0000 -1.9850 6.1535 -1.1982 -4.0766 12.2434 -2.9658 0.2360 0.6997 -3.7157 -23.8172 6.4160 -25.2387 -57.7707 -42.5896 22.8169 8.3673 -13.7636 -1.2667 35.4745 -8.9531 16.4000 9.4167 14.1178 1.0313 -76.0607 19.3266 -64.6120 0.5194 1.0572 0.5377 0.5402 1.0577 0.5094 4.4498 8.4282 1.2300 12.3305 -0.2024 10.1408 11.7705 11.7420 25.9051 70.8465 -45.7963 -32.0908 -7.7250 2.3863 -4.6208 -31.6493 -9.2937 -15.3315 -10.8450 10.6298 -2.6137 80.0061 16.5079 67.2779 0.0000 -0.0000 0.0000 -8.1831 -22.4063 6.0442 4.4571 10.6198 -3.9511 -0.4155 -3.9453 11.0278 0.0000 -5.1767 0.0000 
0.8328 8.3905 0.7090 -1.2790 -6.0259 3.3477 0.0000 -0.0000 0.0000 7.8127 16.4252 -10.0215 -1.5520 12.4097 2.0208 -2.9908 -23.4652 6.9124 0.0000 0.4821 -0.0000 0.0000 -0.0000 0.0000 -1.7913 6.0605 -1.3833 -3.6479 12.0731 -2.9953 0.4240 0.7121 -3.8852 -23.7122 5.3702 -24.5613 -56.6426 -42.2217 22.0436 8.7126 -13.6621 -3.2857 35.6356 -8.3833 17.1595 9.4167 14.1178 1.0313 -76.0607 19.3266 -64.6120 0.4888 1.0103 0.5029 0.5088 1.0105 0.4764 4.3484 8.6879 0.9963 12.3573 -0.2072 10.1710 12.6867 11.6010 25.3980 71.2573 -45.8678 -32.3895 -9.4234 2.1132 -7.1985 -32.1258 -7.2346 -16.6323 -10.8450 10.6298 -2.6138 80.0061 16.5079 67.2779 0.0000 -0.0000 0.0000 -7.8829 -22.5290 6.0300 5.1742 12.9720 -3.6851 -0.0598 -2.7551 7.8612 0.0000 -6.0976 -0.0000 
0.8224 8.3446 0.7017 -0.3411 -6.5971 3.2778 0.0000 -0.0000 0.0000 8.2692 19.7537 -9.5350 -3.0655 10.7965 2.5795 -2.9965 -24.1224 6.5068 -0.0000 0.2231 0.0000 0.0000 -0.0000 0.0000 -1.9502 6.1877 -1.2296 -3.9162 12.3460 -2.3661 0.5197 0.7243 -4.0847 -23.2154 4.3552 -24.4563 -55.5608 -41.8542 21.3072 9.0859 -13.7268 -5.0265 35.7847 -7.8846 17.8189 9.4167 14.1178 1.0313 -76.0607 19.3266 -64.6120 0.5301 0.9892 0.3999 0.5460 0.9896 0.3722 4.5973 8.6905 0.6254 12.4497 -0.2197 10.2274 13.9199 11.1284 24.0783 71.5339 -45.9149 -32.5908 -11.8403 2.0678 -9.4799 -32.3611 -6.3388 -17.1913 -10.8450 10.6298 -2.6137 80.0061 16.5079 67.2779 0.0000 -0.0000 0.0000 -7.5877 -21.1826 6.3103 4.3056 14.0119 -4.0666 0.3029 1.1275 1.1450 -0.0000 -6.4870 -0.0000 
0.8013 8.3095 0.6880 1.7971 -7.0481 2.7135 0.0000 -0.0000 0.0000 9.3386 21.0745 -8.0005 -5.4867 12.2610 2.8840 -2.9917 -24.2827 6.4448 -0.0000 -0.3682 0.0000 0.0000 -0.0000 0.0000 -2.5223 6.0819 -0.8005 -5.0342 12.1394 -1.6263 0.4745 0.7185 -4.0034 -22.8868 4.1764 -24.9644 -55.0431 -41.6730 20.9565 9.7919 -14.4879 -5.6804 35.8949 -7.5310 18.2836 9.4167 14.1178 1.0313 -76.0607 19.3266 -64.6120 0.5976 1.0679 0.3644 0.6102 1.0691 0.3332 4.8825 9.1051 0.3934 12.2753 -0.2098 10.2803 14.9752 10.9490 23.1086 71.6238 -45.9301 -32.6563 -13.4560 2.4095 -10.2983 -32.3960 -6.5173 -16.9559 -10.8450 10.6298 -2.6138 80.0061 16.5079 67.2779 0.0000 -0.0000 0.0000 -7.5351 -19.8279 6.5132 2.3281 15.2848 -4.7303 0.1922 5.3108 -2.1582 -0.0000 -4.7284 -0.0000 
0.7690 8.3032 0.6710 3.8208 -6.9856 1.7132 0.0000 -0.0000 0.0000 10.7508 21.3292 -5.7737 -5.6804 13.8749 3.4443 -4.8711 -22.6504 6.4287 0.0012 -3.4764 -0.2436 0.0000 -0.0000 0.0000 -2.8086 5.6939 -0.1259 -5.5345 11.3877 -0.3575 0.4696 0.7148 -3.9169 -23.4899 4.0567 -25.5674 -53.9527 -41.2804 20.2220 10.3570 -15.8019 -6.5702 35.9378 -7.3967 18.4595 9.4167 14.1178 1.0313 -76.0607 19.3266 -64.6120 0.5844 1.1765 0.3187 0.5925 1.1782 0.2865 4.5999 9.9320 0.3336 11.9745 -0.1889 10.3311 15.1273 11.6922 22.4102 72.0723 -46.0046 -32.9831 -14.1758 2.2002 -10.8256 -32.4917 -6.9847 -16.3317 -10.8450 10.6297 -2.6137 80.0061 16.5079 67.2779 0.0000 -0.0000 0.0000 -8.0224 -19.0279 6.6568 0.4053 17.0070 -4.3624 0.1731 6.4680 -3.4041 -0.0000 -2.8736 -0.0000 
0.7321 8.3148 0.6541 4.4993 -6.8806 0.2810 0.0000 -0.0000 0.0000 12.1274 20.6189 -3.5499 -5.5914 17.3086 3.9821 -5.1665 -21.0847 5.9471 0.0001 -9.7430 -0.0827 0.0000 -0.0000 0.0000 -2.5236 5.3734 0.8562 -4.8430 10.7883 1.6499 0.6361 0.7237 -4.0015 -24.4431 3.4627 -26.0677 -52.3169 -40.6624 19.1306 10.6216 -16.7973 -8.2885 35.8587 -7.4965 18.3773 9.4167 14.1178 1.0313 -76.0607 19.3266 -64.6120 0.5179 1.2638 0.1825 0.5179 1.2656 0.1524 4.1676 10.3641 0.2071 11.9133 -0.1845 10.3304 14.6927 12.6289 21.6467 72.9746 -46.1485 -33.6418 -15.1017 1.9331 -11.8296 -32.6369 -7.6377 -15.4400 -10.8450 10.6298 -2.6138 80.0061 16.5079 67.2779 0.0000 -0.0000 0.0000 -8.6518 -18.4495 7.2074 -0.5065 19.6134 -2.8620 0.4605 3.9351 -4.1860 0.0000 -2.2313 -0.0000 
0.6823 8.3306 0.6381 4.6719 -7.2402 -0.9051 0.0000 -0.0000 0.0000 13.3943 19.3061 -1.4411 -5.4537 22.4024 4.0219 -4.1545 -17.9462 5.0114 0.0040 -17.4001 -0.4217 0.0000 -0.0000 0.0000 -2.2788 5.3964 1.6104 -4.2511 10.8507 3.0667 0.8002 0.7265 -3.9237 -24.6755 2.9637 -26.2765 -51.3499 -40.2803 18.4916 10.8478 -17.3085 -9.9236 35.6454 -7.7679 18.1544 9.4167 14.1178 1.0313 -76.0607 19.3266 -64.6120 0.5028 1.2710 0.1433 0.4996 1.2730 0.1140 4.2470 10.1731 0.2492 11.9945 -0.1881 10.2771 14.8159 12.6023 21.2160 73.4724 -46.2244 -34.0057 -16.2197 2.5431 -12.8775 -32.8173 -8.3746 -14.4044 -10.8450 10.6298 -2.6137 80.0061 16.5079 67.2779 0.0000 -0.0000 0.0000 -8.7395 -17.1227 8.1894 -1.2546 21.7091 -2.4663 0.7690 1.2258 -4.3443 -0.0000 -1.9470 -0.0000 
0.6219 8.3436 0.6162 5.5799 -7.5415 -1.6224 0.0000 -0.0000 0.0000 14.5459 16.0801 0.9696 -5.4247 29.7003 2.7728 -3.6622 -11.9717 4.3280 0.9044 -33.8676 -5.9259 0.0000 -0.0000 0.0000 -2.4659 5.4739 1.9006 -4.5606 11.0046 3.3643 0.6473 0.7042 -3.4780 -24.0937 2.7633 -26.3479 -51.2182 -40.2273 18.4049 10.9665 -17.2597 -11.0455 35.3347 -8.1696 17.8267 9.4167 14.1178 1.0313 -76.0607 19.3266 -64.6120 0.5265 1.2304 0.3042 0.5272 1.2333 0.2731 4.5770 9.8519 0.6873 11.9139 -0.1885 10.3687 15.5574 11.8886 21.0629 73.4024 -46.2139 -33.9545 -17.3153 3.5095 -13.5917 -33.0126 -9.0987 -13.3543 -10.8450 10.6298 -2.6137 80.0061 16.5079 67.2779 0.0000 -0.0000 0.0000 -8.6637 -15.4050 9.2262 -2.8712 22.7829 -3.4214 1.0655 -0.9295 -5.3856 -0.0000 -1.9353 0.0000 
